<?xml version="1.0" encoding="utf-8"?>
<!-- Generator: Adobe Illustrator 16.0.4, SVG Export Plug-In . SVG Version: 6.00 Build 0)  -->
<!DOCTYPE svg PUBLIC "-//W3C//DTD SVG 1.1//EN" "http://www.w3.org/Graphics/SVG/1.1/DTD/svg11.dtd">
<svg version="1.1" id="Layer_1" xmlns="http://www.w3.org/2000/svg" xmlns:xlink="http://www.w3.org/1999/xlink" x="0px" y="0px"
	 width="115px" height="42px" viewBox="0 0 115 42" enable-background="new 0 0 115 42" xml:space="preserve">
<text transform="matrix(1 0 0 1 52.667 27.3838)" fill="#CCCCCC" font-family="Arial, sans-serif" font-size="14">Save</text>
<g>
	<g>
		<path fill="#00BFFF" d="M42.266,19.179c-0.214-1.1-0.843-2.104-1.806-2.866C39.391,15.466,38.001,15,36.553,15
			c-1.118,0-2.208,0.278-3.142,0.801c-0.777,0.434-1.423,1.021-1.879,1.712c-0.198-0.032-0.403-0.05-0.609-0.05
			c-1.748,0-3.171,1.231-3.171,2.745c0,0.196,0.025,0.384,0.066,0.569C26.687,21.489,26,22.636,26,23.855
			c0,0.986,0.424,1.943,1.197,2.701c0.794,0.776,1.842,1.235,2.961,1.289c0.013,0,0.021,0,0.033,0h3.537
			c0.309,0,0.555-0.214,0.555-0.479c0-0.269-0.247-0.48-0.555-0.48h-3.52c-1.682-0.089-3.097-1.474-3.097-3.032
			c0-1.008,0.625-1.946,1.633-2.457c0.234-0.117,0.333-0.363,0.243-0.583c-0.083-0.192-0.124-0.395-0.124-0.612
			c0-0.982,0.925-1.783,2.061-1.783c0.243,0,0.481,0.036,0.703,0.106c0.271,0.085,0.572-0.021,0.695-0.246
			c0.769-1.413,2.431-2.324,4.236-2.324c2.426,0,4.429,1.573,4.659,3.659c0.024,0.217,0.214,0.392,0.461,0.427
			c1.83,0.271,3.212,1.732,3.212,3.402c0,1.771-1.608,3.308-3.591,3.438h-3.03c-0.309,0-0.556,0.214-0.556,0.479
			c0,0.267,0.247,0.48,0.556,0.48h3.051c0.013,0,0.025,0,0.042,0c1.254-0.078,2.426-0.576,3.298-1.408
			c0.867-0.826,1.34-1.887,1.34-2.99C45.996,21.446,44.421,19.67,42.266,19.179z"/>
		<path fill="#00BFFF" d="M39.333,24.312c0.219-0.188,0.219-0.492,0-0.681l-2.94-2.545c-0.103-0.089-0.246-0.142-0.391-0.142
			c-0.144,0-0.288,0.05-0.391,0.142l-2.94,2.545c-0.218,0.188-0.218,0.491,0,0.681c0.107,0.093,0.251,0.143,0.391,0.143
			s0.284-0.046,0.391-0.143l1.995-1.727v7.934c0,0.269,0.246,0.48,0.555,0.48s0.556-0.213,0.556-0.48v-7.934l1.994,1.727
			C38.766,24.501,39.115,24.501,39.333,24.312z"/>
	</g>
</g>
</svg>
